<svg xmlns="http://www.w3.org/2000/svg" width="12.394" height="9.748" viewBox="0 0 12.394 9.748">
  <g id="Grupo_1051" data-name="Grupo 1051" opacity="0.52">
    <path id="Trazado_400" data-name="Trazado 400" d="M-86.136,291.1h-2.308l-1.465-1.253h-3.969l-1.465,1.253h-2.308a.439.439,0,0,0-.439.439v7.616a.439.439,0,0,0,.439.439h11.515a.439.439,0,0,0,.439-.439v-7.616A.439.439,0,0,0-86.136,291.1Zm-5.757,7.415a3.168,3.168,0,0,1-3.168-3.168,3.168,3.168,0,0,1,3.168-3.168,3.168,3.168,0,0,1,3.168,3.168A3.168,3.168,0,0,1-91.893,298.513Z" transform="translate(98.09 -289.845)"/>
    <path id="Trazado_402" data-name="Trazado 402" d="M-66.67,315.113a1.619,1.619,0,0,0-1.619,1.619,1.619,1.619,0,0,0,1.619,1.619,1.619,1.619,0,0,0,1.619-1.619A1.619,1.619,0,0,0-66.67,315.113Z" transform="translate(72.867 -311.231)"/>
  </g>
</svg>
