<svg xmlns="http://www.w3.org/2000/svg" xmlns:xlink="http://www.w3.org/1999/xlink" width="13.643" height="11.874" viewBox="0 0 13.643 11.874">
  <defs>
    <linearGradient id="linear-gradient" x1="-0.215" y1="0.5" x2="1.304" y2="0.5" gradientUnits="objectBoundingBox">
      <stop offset="0" stop-color="#bb29bb"/>
      <stop offset="1" stop-color="#5c06a8"/>
    </linearGradient>
  </defs>
  <path id="Trazado_124" data-name="Trazado 124" d="M1118.318,1325.534c.127-.223.238-.425.356-.622a16.78,16.78,0,0,1,3.624-4.362,11.084,11.084,0,0,1,4.188-2.267c.335-.091.68-.146,1.021-.214a.578.578,0,0,1,.245.007l-.493.405a17.816,17.816,0,0,0-2.089,2.05,35.336,35.336,0,0,0-4.821,7.286q-.315.616-.611,1.241a1.594,1.594,0,0,1-2.421.523,1.944,1.944,0,0,1-.348-.376c-.919-1.309-1.831-2.624-2.749-3.934a.529.529,0,0,1-.013-.63,3.3,3.3,0,0,1,1.213-1.111,2.265,2.265,0,0,1,.875-.328.54.54,0,0,1,.565.251c.443.648.9,1.288,1.348,1.932C1118.238,1325.428,1118.271,1325.47,1118.318,1325.534Z" transform="translate(-1114.108 -1318.059)" fill="url(#linear-gradient)"/>
</svg>
