<svg xmlns="http://www.w3.org/2000/svg" width="21.254" height="15.324" viewBox="0 0 21.254 15.324">
  <path id="Unión_5" data-name="Unión 5" d="M2.926,15.324A2.86,2.86,0,0,1,0,12.338V3.012A2.985,2.985,0,0,1,2.951,0H18.328a2.86,2.86,0,0,1,2.925,2.986q0,4.688,0,9.377a3,3,0,0,1-.826,2.118,2.873,2.873,0,0,1-2.076.842H10.2a.5.5,0,0,1,0-1h8.155a1.861,1.861,0,0,0,1.925-1.964q0-4.688,0-9.376A1.865,1.865,0,0,0,18.328,1H2.951A2,2,0,0,0,.977,3.012v9.326a1.865,1.865,0,0,0,1.949,1.989.5.5,0,0,1,0,1Zm5.65-7.663a2.051,2.051,0,1,1,2.05,2.094h0A2.074,2.074,0,0,1,8.576,7.661Zm6.832,2.094a2.093,2.093,0,1,1,2.054-2.09,2.073,2.073,0,0,1-2.054,2.09Zm-9.57,0A2.093,2.093,0,1,1,7.893,7.666,2.073,2.073,0,0,1,5.839,9.755Z"/>
</svg>
