<svg xmlns="http://www.w3.org/2000/svg" width="31.333" height="27.229" viewBox="0 0 31.333 27.229">
  <g id="Grupo_1029" data-name="Grupo 1029" transform="translate(204.518 -36.666)">
    <path id="Trazado_388" data-name="Trazado 388" d="M-169.057,50.462v-.368a2.208,2.208,0,0,0-2.208-2.208h-5.147a5.447,5.447,0,0,1,1.011-2.12,6.984,6.984,0,0,0,1.192-5.468c-.526-2.138-1.858-3.014-2.629-2.384s-.737,3.786-2.419,5.363-3.54,4.767-4.346,5.222h-3.82V61.117h3.191s.771.876,3.435.876c.057,0-.146-.012,8.107-.012,1.983,0,2.652-2.524,1.539-3.279,1.089-.64,1.534-2.18.467-2.973,1.966-1.218,1.5-3.147.568-3.618A1.991,1.991,0,0,0-169.057,50.462Z" transform="translate(-5.129)" fill="#fff" stroke="#8d15b4" stroke-miterlimit="10" stroke-width="2"/>
    <rect id="Rectángulo_590" data-name="Rectángulo 590" width="7.623" height="16.104" rx="1.845" transform="translate(-203.518 46.791)" fill="#fff" stroke="#8d15b4" stroke-miterlimit="10" stroke-width="2"/>
  </g>
</svg>
