<svg xmlns="http://www.w3.org/2000/svg" width="14.817" height="15" viewBox="0 0 14.817 15"><path d="M1751.366-82.265c-2.024,0-4.047-.006-6.071,0a1.249,1.249,0,0,1-1.3-.846,2.019,2.019,0,0,1,.027-.651c.249-1.51.507-3.019.763-4.528.185-1.092.369-2.184.558-3.275a1.244,1.244,0,0,1,1.335-.953q4.705,0,9.411,0a1.254,1.254,0,0,1,1.342.977c.211,1.265.429,2.529.643,3.793q.334,1.975.663,3.95a2.567,2.567,0,0,1,.057.555,1.173,1.173,0,0,1-1.206.972c-.074,0-.148,0-.223,0Zm0-.593h6.01a1.478,1.478,0,0,0,.265-.02.468.468,0,0,0,.422-.491q-.219-1.325-.445-2.649-.245-1.451-.491-2.9c-.142-.843-.281-1.686-.427-2.528-.056-.323-.258-.462-.649-.462H1746.7c-.4,0-.6.154-.648.478-.059.378-.124.755-.188,1.132q-.275,1.625-.552,3.25-.279,1.643-.556,3.287c-.02.12-.041.241-.061.361-.052.315.218.545.645.545Z" transform="translate(-1743.976 97.262)"/><path d="M1819.487-161.688a3.218,3.218,0,0,1,2.587-3.111,3.231,3.231,0,0,1,3.83,3.3.4.4,0,0,1-.4.44c-.226,0-.373-.14-.4-.4-.009-.075-.006-.152-.009-.228a2.333,2.333,0,0,0-1.151-2.013,2.394,2.394,0,0,0-3.611,1.666c-.026.176-.03.356-.038.535-.013.281-.169.45-.415.44a.4.4,0,0,1-.386-.45C1819.487-161.568,1819.487-161.628,1819.487-161.688Z" transform="translate(-1815.074 164.861)"/></svg>