<svg xmlns="http://www.w3.org/2000/svg" width="32" height="25.882" viewBox="0 0 32 25.882">
  <defs>
    <style>
      .cls-1 {
        fill: #8d15b4;
      }
    </style>
  </defs>
  <g id="URlzST" transform="translate(-895.51 -405.193)">
    <g id="Grupo_905" data-name="Grupo 905" transform="translate(895.51 405.193)">
      <g id="Grupo_904" data-name="Grupo 904">
        <path id="Trazado_336" data-name="Trazado 336" class="cls-1" d="M922.059,431.076h-.007q-3.9,0-7.792,0H900.965a5.269,5.269,0,0,1-4.4-2.129,5.072,5.072,0,0,1-1.046-3.142l0-1.686c-.007-3.532-.013-7.064.007-10.6a5.172,5.172,0,0,1,3.56-4.953,5.937,5.937,0,0,1,1.654-.268c.7-.038,1.412-.023,2.094-.007l.071,0c.463-.461.887-.893,1.325-1.311a6.252,6.252,0,0,1,4.383-1.781c1.539-.014,3.078-.01,4.617-.006l1.059,0a6.4,6.4,0,0,1,4.668,1.936l.269.269c.287.287.575.573.856.866.632.009,1.226.013,1.82.017h.293a5.2,5.2,0,0,1,5.039,3.611,5.665,5.665,0,0,1,.263,1.77c.019,4.129.021,8.173.005,12.018a5.189,5.189,0,0,1-3.127,4.921A5.249,5.249,0,0,1,922.059,431.076Zm-5.048-1.347,5.042,0h.007a3.9,3.9,0,0,0,1.731-.333,3.829,3.829,0,0,0,2.364-3.714c.015-3.841.013-7.881-.005-12.007a4.335,4.335,0,0,0-.193-1.348,3.84,3.84,0,0,0-3.771-2.7h-.294c-.582,0-1.162-.007-1.742.006a1.334,1.334,0,0,1-1.039-.436c-.274-.286-.555-.565-.836-.846l-.271-.27a5.035,5.035,0,0,0-3.719-1.542l-1.06,0c-1.533,0-3.067-.008-4.6.006a4.951,4.951,0,0,0-3.468,1.409c-.425.406-.838.826-1.248,1.248a1.338,1.338,0,0,1-1.035.434H902.8c-.657-.015-1.339-.03-1.992,0a4.817,4.817,0,0,0-1.282.195,3.812,3.812,0,0,0-2.659,3.692c-.021,3.528-.015,7.057-.007,10.585l0,1.687a3.761,3.761,0,0,0,.77,2.329,3.935,3.935,0,0,0,3.331,1.6h16.046Z" transform="translate(-895.51 -405.193)"/>
      </g>
      <path id="Trazado_337" data-name="Trazado 337" class="cls-1" d="M916.682,428.334A5.354,5.354,0,1,1,922.053,423,5.347,5.347,0,0,1,916.682,428.334Zm-3.813-5.343a3.831,3.831,0,1,0,3.818-3.845A3.831,3.831,0,0,0,912.869,422.991Z" transform="translate(-900.7 -409.268)"/>
      <path id="Trazado_338" data-name="Trazado 338" class="cls-1" d="M934,418.922a1.98,1.98,0,1,1-1.97-1.987A1.991,1.991,0,0,1,934,418.922Z" transform="translate(-906.827 -409.041)"/>
    </g>
  </g>
</svg>
