<svg xmlns="http://www.w3.org/2000/svg" width="16.441" height="14.279" viewBox="0 0 16.441 14.279">
  <g id="Grupo_1087" data-name="Grupo 1087" transform="translate(353.014 -57.193)">
    <path id="Trazado_388" data-name="Trazado 388" d="M-177.75,44.428v-.194a1.163,1.163,0,0,0-1.163-1.163h-2.711a2.869,2.869,0,0,1,.533-1.117,3.678,3.678,0,0,0,.628-2.88c-.277-1.126-.979-1.588-1.384-1.256s-.388,1.994-1.274,2.824-1.865,2.51-2.289,2.751h-2.012v6.645h1.681s.406.461,1.809.461c.03,0-.077-.006,4.27-.006,1.045,0,1.4-1.33.811-1.727a.95.95,0,0,0,.246-1.566c1.036-.642.79-1.658.3-1.905A1.049,1.049,0,0,0-177.75,44.428Z" transform="translate(-159.319 20)" fill="none" stroke="#000" stroke-miterlimit="10" stroke-width="0.992"/>
    <rect id="Rectángulo_590" data-name="Rectángulo 590" width="4.015" height="8.482" rx="1.845" transform="translate(-352.518 62.494)" fill="none" stroke="#000" stroke-miterlimit="10" stroke-width="0.992"/>
  </g>
</svg>
