<svg id="DuGRdJ" xmlns="http://www.w3.org/2000/svg" width="21.281" height="19.231" viewBox="0 0 21.281 19.231">
  <g id="Grupo_536" data-name="Grupo 536">
    <path id="Trazado_169" data-name="Trazado 169" d="M-3570.326,2485.223c.016-.177.036-.354.051-.531a10.456,10.456,0,0,1,1.549-4.718,10.262,10.262,0,0,1,4.454-3.979,9.847,9.847,0,0,1,2.83-.83,11.228,11.228,0,0,1,2.015-.077c.065,0,.13,0,.209,0v-.333q0-1.524,0-3.049a1.008,1.008,0,0,1,.352-.852.866.866,0,0,1,1.006-.012,4.3,4.3,0,0,1,.4.3l5.281,4.224,2.618,2.092a1.278,1.278,0,0,1,.5.829c0,.01.011.02.017.029v.28c-.028.1-.053.193-.086.287a1.5,1.5,0,0,1-.538.66q-1.922,1.534-3.842,3.07-2.089,1.669-4.179,3.338a1.006,1.006,0,0,1-.865.254.841.841,0,0,1-.649-.791c-.021-.224-.017-.451-.017-.677,0-.892,0-1.783,0-2.675,0-.019,0-.037,0-.051a9.165,9.165,0,0,0-5.622,1.313,9.281,9.281,0,0,0-3.214,3.336,11.625,11.625,0,0,0-1.066,2.678c-.045.162-.094.323-.146.484a.14.14,0,0,1-.267,0l-.02-.068c-.179-.639-.384-1.273-.525-1.921-.112-.518-.145-1.054-.212-1.582l-.012-.093Zm12.07-.063c.033-.022.046-.03.057-.039l1.3-1.034,6.732-5.386c.208-.167.207-.33,0-.5l-2.171-1.736-5.819-4.656c-.025-.02-.053-.036-.1-.066v4.318c-.278,0-.546.007-.814,0a13.147,13.147,0,0,0-2.227.057,8.97,8.97,0,0,0-2.639.783,9.285,9.285,0,0,0-3.469,2.844,9.593,9.593,0,0,0-1.721,3.767,10.042,10.042,0,0,0-.2,2.738c.011.2.037.4.056.6a.383.383,0,0,0,.088-.127,10.36,10.36,0,0,1,1.515-2.264,10.045,10.045,0,0,1,4.166-2.848,8.9,8.9,0,0,1,2.706-.562c.688-.025,1.378,0,2.066,0,.158,0,.316.013.479.021Z" transform="translate(3570.326 -2470.687)"/>
  </g>
</svg>
