<svg xmlns="http://www.w3.org/2000/svg" width="16.972" height="16.303" viewBox="0 0 16.972 16.303">
  <g id="Trazado_74" data-name="Trazado 74" transform="translate(-769.407 -579.678)" fill="none" stroke-linecap="round" stroke-miterlimit="10">
    <path d="M775.244,585.072l2.459-5.394,2.786,5.233,5.89.671-4.116,4.267,1.182,5.809-5.33-2.6-5.16,2.919.822-5.871-4.371-4.005Z" stroke="none"/>
    <path d="M 777.7723999023438 581.9362182617188 L 776.1541748046875 585.4868774414062 L 775.9360961914062 585.9652709960938 L 775.41845703125 586.0568237304688 L 771.5761108398438 586.7366943359375 L 774.4529418945312 589.3729248046875 L 774.840576171875 589.7280883789062 L 774.7677001953125 590.248779296875 L 774.2269287109375 594.1130981445312 L 777.6231079101562 592.1917724609375 L 778.0806884765625 591.9329223632812 L 778.5533447265625 592.1630859375 L 782.0614013671875 593.87158203125 L 781.2836303710938 590.0478515625 L 781.1788330078125 589.5326538085938 L 781.5438232421875 589.154296875 L 784.252685546875 586.3458251953125 L 780.3757934570312 585.9039916992188 L 779.8534545898438 585.8444213867188 L 779.6063232421875 585.38037109375 L 777.7723999023438 581.9362182617188 M 777.7027587890625 579.677734375 L 780.489013671875 584.910400390625 L 786.3790893554688 585.5816650390625 L 782.2635498046875 589.8485107421875 L 783.4452514648438 595.6577758789062 L 778.115478515625 593.0621337890625 L 772.9557495117188 595.981201171875 L 773.77734375 590.1101684570312 L 769.4066772460938 586.1050415039062 L 775.2442016601562 585.0721435546875 L 777.7027587890625 579.677734375 Z" stroke="none" fill="#bb29bb"/>
  </g>
</svg>
