<svg xmlns="http://www.w3.org/2000/svg" xmlns:xlink="http://www.w3.org/1999/xlink" width="53.769" height="53.769" viewBox="0 0 53.769 53.769"><defs><style>.a{fill:url(#a);}</style><linearGradient id="a" x1="0.218" y1="0.5" x2="0.82" y2="0.5" gradientUnits="objectBoundingBox"><stop offset="0" stop-color="#81b400"/><stop offset="1" stop-color="#2b6a00"/></linearGradient></defs><path class="a" d="M0,26.884A26.885,26.885,0,1,1,26.884,53.768,26.884,26.884,0,0,1,0,26.884ZM17.514,4.7a24.17,24.17,0,1,0,9.37-1.89A24,24,0,0,0,17.514,4.7ZM13.051,39.61l.395-.807,1.087-2.226,3.15-6.449a2.422,2.422,0,0,0-.486-2.8l-4.718-4.6a2.422,2.422,0,0,1,1.342-4.13l.822-.12,2.081-.3.676-.1,2.185-.317h0l1.228-.178a2.422,2.422,0,0,0,1.824-1.325l.059-.119-2.078-1.023,3.112-1.072.055-.019,1.77-.61.641,1.818.028.079,1.093,3.1-1.92-.945-.245-.12-.06.122A5.159,5.159,0,0,1,21.2,20.294l-.623.091v0l-2.439.354-.77.111-2.549.369a2.743,2.743,0,0,1-.637-.982l0-.009-.017-.055,0-.008c-.01-.035-.019-.072-.027-.107a.046.046,0,0,0,0-.011L14.123,20c0-.01,0-.02-.005-.03s0-.027-.006-.04,0-.024,0-.037,0-.024,0-.036,0-.045,0-.068,0-.019,0-.03,0-.028,0-.042c0,.014,0,.027,0,.042s0,.02,0,.03,0,.046,0,.068,0,.024,0,.036,0,.024,0,.037,0,.027.006.04,0,.02.005.03l.008.044a.046.046,0,0,1,0,.011c.008.035.017.072.027.107l0,.008.017.055,0,.009a3.606,3.606,0,0,0,1.206,1.507l3.718,3.624a5.15,5.15,0,0,1,1.035,5.959l-2.893,5.924-.089.182-.118.241h0c-.406.812-.782,1.515-1.034,2.125l.007,0a3.937,3.937,0,0,0,.509-.324l1.085-.782-.591,1.922,1.786.563-1.1.795-1.17.745a2.4,2.4,0,0,1-1.3.393A2.433,2.433,0,0,1,13.051,39.61Zm1.051-20c0-.026,0-.05.008-.076C14.107,19.558,14.1,19.583,14.1,19.608Zm.043-.262c.007-.027.013-.054.022-.081C14.158,19.292,14.151,19.32,14.145,19.346ZM19.8,40.633l-1.786-.563.592-1.921L19.569,35l.981,1.9,4.732-3.014a5.163,5.163,0,0,1,5.173-.215l2.783,1.463,1.036.544,1.226.645c.207.112.4.217.573.311l-.031-.018c-.027-.144-.058-.292-.089-.446v0l-.339-1.824,1.594,1.031,1.079-1.642.326,1.744h0l.221,1.291a2.421,2.421,0,0,1-3.514,2.552l-.187-.1L32.7,37.948,29.18,36.1a2.421,2.421,0,0,0-2.428.1L21.809,39.35,22.99,41.64Zm15.62-7.44-2.848-1.844,2.448-.5-.1-.576A5.159,5.159,0,0,1,36.4,25.71l2.792-2.721L41,21.225l-.584-.085L34.642,20.3a5.16,5.16,0,0,1-3.885-2.823L29.1,14.114l-1.183-2.4-.367.742-.872,1.793-.641-1.818-1.825.629,1.532-3.132a2.422,2.422,0,0,1,4.343,0l.445.9.846,1.715,1.837,3.72a2.423,2.423,0,0,0,1.823,1.325l6.994,1.016a2.422,2.422,0,0,1,1.342,4.13L42.8,23.3l-1.535,1.5-2.954,2.88a2.421,2.421,0,0,0-.7,2.144l.091.532,2.18-.441L38.1,32.626l-1.079,1.642Z" transform="translate(0 0)"/></svg>