<svg id="Grupo_1051" data-name="Grupo 1051" xmlns="http://www.w3.org/2000/svg" width="36.872" height="29" viewBox="0 0 36.872 29">
  <path id="Trazado_400" data-name="Trazado 400" d="M-62.526,293.573h-6.867l-4.358-3.728H-85.558l-4.358,3.728h-6.867a1.307,1.307,0,0,0-1.307,1.307v22.658a1.307,1.307,0,0,0,1.307,1.307h34.257a1.307,1.307,0,0,0,1.308-1.307V294.88A1.307,1.307,0,0,0-62.526,293.573Zm-17.129,22.06a9.425,9.425,0,0,1-9.425-9.425,9.425,9.425,0,0,1,9.425-9.424,9.425,9.425,0,0,1,9.425,9.424A9.425,9.425,0,0,1-79.655,315.634Z" transform="translate(98.09 -289.845)" fill="#bb29bb"/>
  <path id="Trazado_402" data-name="Trazado 402" d="M-63.473,315.113a4.816,4.816,0,0,0-4.816,4.816,4.816,4.816,0,0,0,4.816,4.816,4.817,4.817,0,0,0,4.817-4.816A4.817,4.817,0,0,0-63.473,315.113Z" transform="translate(81.908 -303.565)" fill="#bb29bb"/>
</svg>
