<svg xmlns="http://www.w3.org/2000/svg" width="29.496" height="18.589" viewBox="0 0 29.496 18.589">
  <defs>
    <style>
      .cls-1 {
        fill: #8d15b4;
      }
    </style>
  </defs>
  <g id="Grupo_903" data-name="Grupo 903" transform="translate(-899.924 -391.45)">
    <path id="Trazado_332" data-name="Trazado 332" class="cls-1" d="M915.019,405.462c5.813.237,10.335,3.372,14.026,7.886a2.084,2.084,0,0,1,.1,2.622c-4.512,5.887-12.317,10.9-21.232,6.262-2.728-1.419-4.987-3.826-7.236-6.012a2.117,2.117,0,0,1-.03-2.909C904.273,408.856,908.711,405.691,915.019,405.462Zm12.294,8.814c-8.01-10.111-18.781-8.266-25.021.158a.765.765,0,0,0,.027.931c8.037,9.727,18.457,8.374,25-.158A.766.766,0,0,0,927.313,414.276Z" transform="translate(-0.143 -14.012)"/>
    <path id="Trazado_334" data-name="Trazado 334" class="cls-1" d="M922.952,415.916a5.512,5.512,0,1,1-11.022-.154,5.589,5.589,0,0,1,5.6-5.473A5.508,5.508,0,0,1,922.952,415.916Zm-5.581-3.773a3.663,3.663,0,0,0-3.538,3.77,3.581,3.581,0,0,0,3.765,3.546,3.7,3.7,0,0,0,3.511-3.641A3.861,3.861,0,0,0,917.37,412.143Z" transform="translate(-2.769 -15.08)"/>
  </g>
</svg>
